<svg width="1012" height="381" viewBox="0 0 1012 381" class="keymap" xmlns="http://www.w3.org/2000/svg" xmlns:xlink="http://www.w3.org/1999/xlink">
<style>/* inherit to force styles through use tags */
svg path {
    fill: inherit;
}

/* font and background color specifications */
svg.keymap {
    font-family: SFMono-Regular,Consolas,Liberation Mono,Menlo,monospace;
    font-size: 14px;
    font-kerning: normal;
    text-rendering: optimizeLegibility;
    fill: #24292e;
}

/* default key styling */
rect.key {
    fill: #f6f8fa;
    stroke: #c9cccf;
    stroke-width: 1;
}

/* default key side styling, only used is draw_key_sides is set */
rect.side {
    filter: brightness(90%);
}

/* color accent for combo boxes */
rect.combo, rect.combo-separate {
    fill: #cdf;
}

/* color accent for held keys */
rect.held, rect.combo.held {
    fill: #fdd;
}

/* color accent for ghost (optional) keys */
rect.ghost, rect.combo.ghost {
    stroke-dasharray: 4, 4;
    stroke-width: 2;
}

text {
    text-anchor: middle;
    dominant-baseline: middle;
}

/* styling for layer labels */
text.label {
    font-weight: bold;
    text-anchor: start;
    stroke: white;
    stroke-width: 2;
    paint-order: stroke;
}

/* styling for combo tap, and key hold/shifted label text */
text.combo, text.hold, text.shifted {
    font-size: 11px;
}

text.hold {
    text-anchor: middle;
    dominant-baseline: auto;
}

text.shifted {
    text-anchor: middle;
    dominant-baseline: hanging;
}

/* styling for hold/shifted label text in combo box */
text.combo.hold, text.combo.shifted {
    font-size: 8px;
}

/* lighter symbol for transparent keys */
text.trans {
    fill: #7b7e81;
}

/* styling for combo dendrons */
path.combo {
    stroke-width: 1;
    stroke: gray;
    fill: none;
}

/* Start Tabler Icons Cleanup */
/* cannot use height/width with glyphs */
.icon-tabler > path {
    fill: inherit;
    stroke: inherit;
    stroke-width: 2;
}
/* hide tabler's default box */
.icon-tabler > path[stroke="none"][fill="none"] {
    visibility: hidden;
}
/* End Tabler Icons Cleanup */

svg.keymap { fill: #d1d6db; }
rect.key { fill: #3f4750; }
rect.key, rect.combo { stroke: #60666c; }
rect.combo, rect.combo-separate { fill: #1f3d7a; }
rect.held, rect.combo.held { fill: #854747; }
text.label, text.footer { stroke: black; }
text.trans { fill: #7e8184; }
path.combo { stroke: #7f7f7f; }
</style>
<g transform="translate(30, 0)" class="layer-COMBOREF">
<text x="0" y="28" class="label" id="COMBOREF">COMBOREF:</text>
<g transform="translate(0, 56)">
<g transform="translate(28, 78)" class="key keypos-0">
<rect rx="6" ry="6" x="-26" y="-26" width="52" height="52" class="key"/>
<text x="0" y="0" class="key tap">
<tspan x="0" dy="-1.2em">LT</tspan><tspan x="0" dy="1.2em">OUTR</tspan>
</text>
<text x="0" y="24" class="key hold">0</text>
</g>
<g transform="translate(84, 78)" class="key keypos-1">
<rect rx="6" ry="6" x="-26" y="-26" width="52" height="52" class="key"/>
<text x="0" y="0" class="key tap">
<tspan x="0" dy="-1.2em">LT</tspan><tspan x="0" dy="1.2em">PNKY</tspan>
</text>
<text x="0" y="24" class="key hold">1</text>
</g>
<g transform="translate(140, 45)" class="key keypos-2">
<rect rx="6" ry="6" x="-26" y="-26" width="52" height="52" class="key"/>
<text x="0" y="0" class="key tap">
<tspan x="0" dy="-1.2em">LT</tspan><tspan x="0" dy="1.2em">RING</tspan>
</text>
<text x="0" y="24" class="key hold">2</text>
</g>
<g transform="translate(196, 28)" class="key keypos-3">
<rect rx="6" ry="6" x="-26" y="-26" width="52" height="52" class="key"/>
<text x="0" y="0" class="key tap">
<tspan x="0" dy="-1.2em">LT</tspan><tspan x="0" dy="1.2em">MDLE</tspan>
</text>
<text x="0" y="24" class="key hold">3</text>
</g>
<g transform="translate(252, 39)" class="key keypos-4">
<rect rx="6" ry="6" x="-26" y="-26" width="52" height="52" class="key"/>
<text x="0" y="0" class="key tap">
<tspan x="0" dy="-1.2em">LT</tspan><tspan x="0" dy="1.2em">INDX</tspan>
</text>
<text x="0" y="24" class="key hold">4</text>
</g>
<g transform="translate(308, 39)" class="key keypos-5">
<rect rx="6" ry="6" x="-26" y="-26" width="52" height="52" class="key"/>
<text x="0" y="0" class="key tap">
<tspan x="0" dy="-1.2em">LT</tspan><tspan x="0" dy="1.2em">INNR</tspan>
</text>
<text x="0" y="24" class="key hold">5</text>
</g>
<g transform="translate(644, 39)" class="key keypos-6">
<rect rx="6" ry="6" x="-26" y="-26" width="52" height="52" class="key"/>
<text x="0" y="0" class="key tap">
<tspan x="0" dy="-1.2em">RT</tspan><tspan x="0" dy="1.2em">INNR</tspan>
</text>
<text x="0" y="24" class="key hold">6</text>
</g>
<g transform="translate(700, 39)" class="key keypos-7">
<rect rx="6" ry="6" x="-26" y="-26" width="52" height="52" class="key"/>
<text x="0" y="0" class="key tap">
<tspan x="0" dy="-1.2em">RT</tspan><tspan x="0" dy="1.2em">INDX</tspan>
</text>
<text x="0" y="24" class="key hold">7</text>
</g>
<g transform="translate(756, 28)" class="key keypos-8">
<rect rx="6" ry="6" x="-26" y="-26" width="52" height="52" class="key"/>
<text x="0" y="0" class="key tap">
<tspan x="0" dy="-1.2em">RT</tspan><tspan x="0" dy="1.2em">MDLE</tspan>
</text>
<text x="0" y="24" class="key hold">8</text>
</g>
<g transform="translate(812, 45)" class="key keypos-9">
<rect rx="6" ry="6" x="-26" y="-26" width="52" height="52" class="key"/>
<text x="0" y="0" class="key tap">
<tspan x="0" dy="-1.2em">RT</tspan><tspan x="0" dy="1.2em">RING</tspan>
</text>
<text x="0" y="24" class="key hold">9</text>
</g>
<g transform="translate(868, 78)" class="key keypos-10">
<rect rx="6" ry="6" x="-26" y="-26" width="52" height="52" class="key"/>
<text x="0" y="0" class="key tap">
<tspan x="0" dy="-1.2em">RT</tspan><tspan x="0" dy="1.2em">PNKY</tspan>
</text>
<text x="0" y="24" class="key hold">10</text>
</g>
<g transform="translate(924, 78)" class="key keypos-11">
<rect rx="6" ry="6" x="-26" y="-26" width="52" height="52" class="key"/>
<text x="0" y="0" class="key tap">
<tspan x="0" dy="-1.2em">RT</tspan><tspan x="0" dy="1.2em">OUTR</tspan>
</text>
<text x="0" y="24" class="key hold">11</text>
</g>
<g transform="translate(28, 134)" class="key keypos-12">
<rect rx="6" ry="6" x="-26" y="-26" width="52" height="52" class="key"/>
<text x="0" y="0" class="key tap">
<tspan x="0" dy="-1.2em">LH</tspan><tspan x="0" dy="1.2em">OUTR</tspan>
</text>
<text x="0" y="24" class="key hold">12</text>
</g>
<g transform="translate(84, 134)" class="key keypos-13">
<rect rx="6" ry="6" x="-26" y="-26" width="52" height="52" class="key"/>
<text x="0" y="0" class="key tap">
<tspan x="0" dy="-1.2em">LH</tspan><tspan x="0" dy="1.2em">PNKY</tspan>
</text>
<text x="0" y="24" class="key hold">13</text>
</g>
<g transform="translate(140, 101)" class="key keypos-14">
<rect rx="6" ry="6" x="-26" y="-26" width="52" height="52" class="key"/>
<text x="0" y="0" class="key tap">
<tspan x="0" dy="-1.2em">LH</tspan><tspan x="0" dy="1.2em">RING</tspan>
</text>
<text x="0" y="24" class="key hold">14</text>
</g>
<g transform="translate(196, 84)" class="key keypos-15">
<rect rx="6" ry="6" x="-26" y="-26" width="52" height="52" class="key"/>
<text x="0" y="0" class="key tap">
<tspan x="0" dy="-1.2em">LH</tspan><tspan x="0" dy="1.2em">MDLE</tspan>
</text>
<text x="0" y="24" class="key hold">15</text>
</g>
<g transform="translate(252, 95)" class="key keypos-16">
<rect rx="6" ry="6" x="-26" y="-26" width="52" height="52" class="key"/>
<text x="0" y="0" class="key tap">
<tspan x="0" dy="-1.2em">LH</tspan><tspan x="0" dy="1.2em">INDX</tspan>
</text>
<text x="0" y="24" class="key hold">16</text>
</g>
<g transform="translate(308, 95)" class="key keypos-17">
<rect rx="6" ry="6" x="-26" y="-26" width="52" height="52" class="key"/>
<text x="0" y="0" class="key tap">
<tspan x="0" dy="-1.2em">LH</tspan><tspan x="0" dy="1.2em">INNR</tspan>
</text>
<text x="0" y="24" class="key hold">17</text>
</g>
<g transform="translate(644, 95)" class="key keypos-18">
<rect rx="6" ry="6" x="-26" y="-26" width="52" height="52" class="key"/>
<text x="0" y="0" class="key tap">
<tspan x="0" dy="-1.2em">RH</tspan><tspan x="0" dy="1.2em">INNR</tspan>
</text>
<text x="0" y="24" class="key hold">18</text>
</g>
<g transform="translate(700, 95)" class="key keypos-19">
<rect rx="6" ry="6" x="-26" y="-26" width="52" height="52" class="key"/>
<text x="0" y="0" class="key tap">
<tspan x="0" dy="-1.2em">RH</tspan><tspan x="0" dy="1.2em">INDX</tspan>
</text>
<text x="0" y="24" class="key hold">19</text>
</g>
<g transform="translate(756, 84)" class="key keypos-20">
<rect rx="6" ry="6" x="-26" y="-26" width="52" height="52" class="key"/>
<text x="0" y="0" class="key tap">
<tspan x="0" dy="-1.2em">RH</tspan><tspan x="0" dy="1.2em">MDLE</tspan>
</text>
<text x="0" y="24" class="key hold">20</text>
</g>
<g transform="translate(812, 101)" class="key keypos-21">
<rect rx="6" ry="6" x="-26" y="-26" width="52" height="52" class="key"/>
<text x="0" y="0" class="key tap">
<tspan x="0" dy="-1.2em">RH</tspan><tspan x="0" dy="1.2em">RING</tspan>
</text>
<text x="0" y="24" class="key hold">21</text>
</g>
<g transform="translate(868, 134)" class="key keypos-22">
<rect rx="6" ry="6" x="-26" y="-26" width="52" height="52" class="key"/>
<text x="0" y="0" class="key tap">
<tspan x="0" dy="-1.2em">RH</tspan><tspan x="0" dy="1.2em">PNKY</tspan>
</text>
<text x="0" y="24" class="key hold">22</text>
</g>
<g transform="translate(924, 134)" class="key keypos-23">
<rect rx="6" ry="6" x="-26" y="-26" width="52" height="52" class="key"/>
<text x="0" y="0" class="key tap">
<tspan x="0" dy="-1.2em">RH</tspan><tspan x="0" dy="1.2em">OUTR</tspan>
</text>
<text x="0" y="24" class="key hold">23</text>
</g>
<g transform="translate(28, 190)" class="key keypos-24">
<rect rx="6" ry="6" x="-26" y="-26" width="52" height="52" class="key"/>
<text x="0" y="0" class="key tap">
<tspan x="0" dy="-1.2em">LB</tspan><tspan x="0" dy="1.2em">OUTR</tspan>
</text>
<text x="0" y="24" class="key hold">24</text>
</g>
<g transform="translate(84, 190)" class="key keypos-25">
<rect rx="6" ry="6" x="-26" y="-26" width="52" height="52" class="key"/>
<text x="0" y="0" class="key tap">
<tspan x="0" dy="-1.2em">LB</tspan><tspan x="0" dy="1.2em">PNKY</tspan>
</text>
<text x="0" y="24" class="key hold">25</text>
</g>
<g transform="translate(140, 157)" class="key keypos-26">
<rect rx="6" ry="6" x="-26" y="-26" width="52" height="52" class="key"/>
<text x="0" y="0" class="key tap">
<tspan x="0" dy="-1.2em">LB</tspan><tspan x="0" dy="1.2em">RING</tspan>
</text>
<text x="0" y="24" class="key hold">26</text>
</g>
<g transform="translate(196, 140)" class="key keypos-27">
<rect rx="6" ry="6" x="-26" y="-26" width="52" height="52" class="key"/>
<text x="0" y="0" class="key tap">
<tspan x="0" dy="-1.2em">LB</tspan><tspan x="0" dy="1.2em">MDLE</tspan>
</text>
<text x="0" y="24" class="key hold">27</text>
</g>
<g transform="translate(252, 151)" class="key keypos-28">
<rect rx="6" ry="6" x="-26" y="-26" width="52" height="52" class="key"/>
<text x="0" y="0" class="key tap">
<tspan x="0" dy="-1.2em">LB</tspan><tspan x="0" dy="1.2em">INDX</tspan>
</text>
<text x="0" y="24" class="key hold">28</text>
</g>
<g transform="translate(308, 151)" class="key keypos-29">
<rect rx="6" ry="6" x="-26" y="-26" width="52" height="52" class="key"/>
<text x="0" y="0" class="key tap">
<tspan x="0" dy="-1.2em">LB</tspan><tspan x="0" dy="1.2em">INNR</tspan>
</text>
<text x="0" y="24" class="key hold">29</text>
</g>
<g transform="translate(644, 151)" class="key keypos-30">
<rect rx="6" ry="6" x="-26" y="-26" width="52" height="52" class="key"/>
<text x="0" y="0" class="key tap">
<tspan x="0" dy="-1.2em">RB</tspan><tspan x="0" dy="1.2em">INNR</tspan>
</text>
<text x="0" y="24" class="key hold">30</text>
</g>
<g transform="translate(700, 151)" class="key keypos-31">
<rect rx="6" ry="6" x="-26" y="-26" width="52" height="52" class="key"/>
<text x="0" y="0" class="key tap">
<tspan x="0" dy="-1.2em">RB</tspan><tspan x="0" dy="1.2em">INDX</tspan>
</text>
<text x="0" y="24" class="key hold">31</text>
</g>
<g transform="translate(756, 140)" class="key keypos-32">
<rect rx="6" ry="6" x="-26" y="-26" width="52" height="52" class="key"/>
<text x="0" y="0" class="key tap">
<tspan x="0" dy="-1.2em">RB</tspan><tspan x="0" dy="1.2em">MDLE</tspan>
</text>
<text x="0" y="24" class="key hold">32</text>
</g>
<g transform="translate(812, 157)" class="key keypos-33">
<rect rx="6" ry="6" x="-26" y="-26" width="52" height="52" class="key"/>
<text x="0" y="0" class="key tap">
<tspan x="0" dy="-1.2em">RB</tspan><tspan x="0" dy="1.2em">RING</tspan>
</text>
<text x="0" y="24" class="key hold">33</text>
</g>
<g transform="translate(868, 190)" class="key keypos-34">
<rect rx="6" ry="6" x="-26" y="-26" width="52" height="52" class="key"/>
<text x="0" y="0" class="key tap">
<tspan x="0" dy="-1.2em">RB</tspan><tspan x="0" dy="1.2em">PNKY</tspan>
</text>
<text x="0" y="24" class="key hold">34</text>
</g>
<g transform="translate(924, 190)" class="key keypos-35">
<rect rx="6" ry="6" x="-26" y="-26" width="52" height="52" class="key"/>
<text x="0" y="0" class="key tap">
<tspan x="0" dy="-1.2em">RB</tspan><tspan x="0" dy="1.2em">OUTR</tspan>
</text>
<text x="0" y="24" class="key hold">35</text>
</g>
<g transform="translate(308, 213)" class="key keypos-36">
<rect rx="6" ry="6" x="-26" y="-26" width="52" height="52" class="key"/>
<text x="0" y="0" class="key tap">
<tspan x="0" dy="-1.2em">L</tspan><tspan x="0" dy="1.2em">LTHMB</tspan>
</text>
<text x="0" y="24" class="key hold">36</text>
</g>
<g transform="translate(367, 218) rotate(10.0)" class="key keypos-37">
<rect rx="6" ry="6" x="-26" y="-26" width="52" height="52" class="key"/>
<text x="0" y="0" class="key tap">
<tspan x="0" dy="-1.2em">L</tspan><tspan x="0" dy="1.2em">MTHMB</tspan>
</text>
<text x="0" y="24" class="key hold">37</text>
</g>
<g transform="translate(425, 233) rotate(20.0)" class="key keypos-38">
<rect rx="6" ry="6" x="-26" y="-26" width="52" height="52" class="key"/>
<text x="0" y="0" class="key tap">
<tspan x="0" dy="-1.2em">L</tspan><tspan x="0" dy="1.2em">RTHMB</tspan>
</text>
<text x="0" y="24" class="key hold">38</text>
</g>
<g transform="translate(527, 233) rotate(-20.0)" class="key keypos-39">
<rect rx="6" ry="6" x="-26" y="-26" width="52" height="52" class="key"/>
<text x="0" y="0" class="key tap">
<tspan x="0" dy="-1.2em">R</tspan><tspan x="0" dy="1.2em">LTHMB</tspan>
</text>
<text x="0" y="24" class="key hold">39</text>
</g>
<g transform="translate(585, 218) rotate(-10.0)" class="key keypos-40">
<rect rx="6" ry="6" x="-26" y="-26" width="52" height="52" class="key"/>
<text x="0" y="0" class="key tap">
<tspan x="0" dy="-1.2em">R</tspan><tspan x="0" dy="1.2em">MTHMB</tspan>
</text>
<text x="0" y="24" class="key hold">40</text>
</g>
</g>
</g>
</svg>
